<svg width="240" height="106" viewBox="0 0 240 106" fill="none" xmlns="http://www.w3.org/2000/svg">
<rect x="99.8486" y="21.8496" width="127" height="48" rx="8" transform="rotate(-3.22239 99.8486 21.8496)" fill="black"/>
<rect x="101.263" y="20.268" width="126" height="47" rx="7.5" transform="rotate(-3.22239 101.263 20.268)" fill="#22C55E" stroke="black"/>
<path d="M117.693 40.1503L115.746 40.2599L115.605 37.7439L117.552 37.6343L117.489 36.5261C117.316 33.441 119.07 31.5093 122.035 31.3423C124.431 31.2074 125.963 32.263 126.65 34.3276L124.386 35.2063C124.039 34.3845 123.438 33.8474 122.51 33.8997C121.401 33.9621 120.969 34.8278 121.038 36.0558L121.116 37.4336L124.65 37.2347L124.792 39.7507L121.258 39.9497L121.86 50.6427L118.295 50.8434L117.693 40.1503ZM135.431 43.7189L135.033 36.6501L138.627 36.4477L139.371 49.6568L135.777 49.8592L135.655 47.7026C135.052 49.269 133.551 50.3451 131.544 50.4581C128.039 50.6554 126.708 48.3566 126.543 45.4212L126.077 37.1543L129.672 36.952L130.097 44.5C130.21 46.5068 131.026 47.6628 132.793 47.5633C134.56 47.4638 135.558 45.9653 135.431 43.7189ZM145.611 42.2143L146.009 49.2831L142.415 49.4854L141.671 36.2764L145.266 36.074L145.387 38.2306C145.962 36.6959 147.582 35.583 149.559 35.4717C153.093 35.2727 154.516 37.5964 154.681 40.5318L155.145 48.7687L151.551 48.9711L151.127 41.453C151.013 39.4162 150.138 38.2936 148.371 38.3931C146.544 38.496 145.487 39.9978 145.611 42.2143ZM167.442 41.7063L167.413 41.1971C167.278 38.8009 165.726 37.3859 163.69 37.5006C161.443 37.6271 160.368 39.3403 160.509 41.8563C160.649 44.3423 161.91 45.924 164.157 45.7975C166.193 45.6828 167.578 44.1325 167.442 41.7063ZM167.769 48.058L167.628 45.542C167.118 47.1632 165.573 48.5422 163.237 48.6737C159.313 48.8946 157.104 45.9541 156.885 42.0603C156.666 38.1665 158.529 34.9667 162.453 34.7458C164.789 34.6142 166.479 35.8111 167.169 37.3949L166.707 29.1879L170.301 28.9855L171.364 47.8556L167.769 48.058ZM173.642 34.4764L177.237 34.274L177.98 47.4831L174.386 47.6855L173.642 34.4764ZM173.461 32.3232L173.264 28.8187L176.948 28.6113L177.145 32.1157L173.461 32.3232ZM184.193 40.0421L184.591 47.1109L180.997 47.3133L180.253 34.1042L183.847 33.9018L183.969 36.0584C184.543 34.5237 186.163 33.4109 188.14 33.2996C191.674 33.1006 193.097 35.4243 193.263 38.3596L193.726 46.5966L190.132 46.7989L189.709 39.2808C189.594 37.2441 188.72 36.1215 186.952 36.2209C185.125 36.3238 184.068 37.8256 184.193 40.0421ZM207.759 36.7322C207.914 39.4878 205.494 41.3368 202.019 41.5324C200.941 41.5931 199.944 41.499 199.087 41.2167C198.769 41.445 198.578 41.7862 198.602 42.2056C198.636 42.8046 199.047 43.1721 200.035 43.1164L205.307 42.8196C208.242 42.6544 209.829 44.1576 209.949 46.2842C210.134 49.579 206.378 51.1726 202.275 51.4037C198.62 51.6094 195.453 50.8563 195.315 48.4001C195.239 47.0523 196.263 46.0331 197.809 45.7357C196.589 45.4138 195.906 44.4907 195.845 43.4124C195.778 42.2143 196.566 41.2685 197.825 40.6868C196.643 39.9721 195.888 38.8428 195.808 37.4051C195.649 34.5895 198.039 32.7423 201.513 32.5466C203.131 32.4556 204.652 32.7906 205.773 33.4787C206.462 32.3882 207.733 31.4753 209.171 31.3944L209.333 34.2698C208.614 34.3103 207.752 34.479 207.077 34.7574C207.468 35.3063 207.716 35.9834 207.759 36.7322ZM198.549 47.6772C198.617 48.8753 200.025 49.3369 202.152 49.2171C204.787 49.0687 206.671 48.3618 206.598 47.0738C206.549 46.2052 205.812 45.9162 204.614 45.9836L200.211 46.2315C199.252 46.2855 198.495 46.7187 198.549 47.6772ZM204.104 36.9379C204.018 35.4104 203.044 34.6539 201.666 34.7315C200.319 34.8074 199.436 35.6684 199.522 37.196C199.608 38.7235 200.582 39.48 201.93 39.4041C203.307 39.3265 204.19 38.4655 204.104 36.9379ZM211.288 45.6078L211.062 41.5942L215.076 41.3682L215.292 45.2022C215.433 47.7182 214.339 49.1018 211.497 49.322L211.391 47.4349C212.646 47.3042 213.156 46.7647 213.085 45.5067L211.288 45.6078Z" fill="white"/>
<circle cx="222.594" cy="13.9362" r="13" transform="rotate(-3.22239 222.594 13.9362)" fill="white"/>
<g clip-path="url(#clip0_5_80723)">
<path d="M220.128 18.9992C219.831 19.016 219.57 18.9243 219.346 18.7243C219.122 18.5242 219.002 18.2756 218.986 17.9785L218.681 12.5704C218.665 12.273 218.756 12.0123 218.956 11.7883C219.156 11.5644 219.405 11.4443 219.702 11.4279L220.243 11.3975L220.182 10.3158C220.14 9.56771 220.368 8.91507 220.865 8.3579C221.363 7.80073 221.986 7.50128 222.734 7.45954C223.482 7.41742 224.134 7.64525 224.692 8.14302C225.249 8.6408 225.548 9.26357 225.59 10.0114L225.651 11.093L226.192 11.0625C226.489 11.0458 226.75 11.1374 226.974 11.3375C227.198 11.5376 227.318 11.7861 227.334 12.0832L227.639 17.4914C227.655 17.7888 227.564 18.0495 227.364 18.2734C227.164 18.4974 226.915 18.6175 226.618 18.6339L220.128 18.9992ZM223.221 16.1125C223.518 16.0958 223.767 15.9754 223.967 15.7515C224.167 15.5276 224.259 15.2671 224.242 14.97C224.225 14.6725 224.105 14.4238 223.881 14.2237C223.657 14.0237 223.396 13.9322 223.099 13.9493C222.802 13.966 222.553 14.0864 222.353 14.3103C222.153 14.5342 222.061 14.7947 222.078 15.0918C222.095 15.3892 222.215 15.638 222.439 15.838C222.663 16.0381 222.924 16.1296 223.221 16.1125ZM221.324 11.3366L224.569 11.1539L224.508 10.0722C224.483 9.62157 224.304 9.24738 223.97 8.94967C223.637 8.65196 223.245 8.51579 222.795 8.54116C222.344 8.56654 221.97 8.74584 221.672 9.07907C221.374 9.41231 221.238 9.80426 221.264 10.2549L221.324 11.3366Z" fill="#22C55E"/>
</g>
<path d="M5.29992 46.28L8.74992 46.13C8.89992 49.07 11.0299 50.39 13.6699 50.39C16.0099 50.39 17.5099 49.46 17.5099 47.87C17.5099 46.43 16.3699 45.89 14.3899 45.5L10.7899 44.84C7.84992 44.3 5.80992 42.68 5.80992 39.56C5.80992 36.02 8.59992 33.74 13.0099 33.74C17.9599 33.74 20.7499 36.29 20.8099 40.49L17.3599 40.61C17.2399 38.03 15.5599 36.68 12.9799 36.68C10.7599 36.68 9.49992 37.67 9.49992 39.29C9.49992 40.67 10.4899 41.15 12.1999 41.48L15.6799 42.11C19.3999 42.8 21.1399 44.57 21.1399 47.63C21.1399 51.35 17.9299 53.36 13.6699 53.36C8.80992 53.36 5.29992 50.84 5.29992 46.28ZM33.4095 48.38L36.3195 48.68C35.6295 51.62 33.3495 53.36 29.9595 53.36C25.8795 53.36 22.9395 50.75 22.9395 46.58C22.9395 42.41 25.9095 39.41 29.8695 39.41C34.1895 39.41 36.4095 42.41 36.4095 46.01V47.3H26.4795C26.5995 49.25 28.1295 50.63 30.0795 50.63C31.8495 50.63 32.8995 49.88 33.4095 48.38ZM26.5395 45.05H32.8995C32.7795 43.52 31.8495 42.05 29.8395 42.05C27.8595 42.05 26.8695 43.4 26.5395 45.05ZM38.0566 46.4C38.0566 42.2 40.9666 39.41 45.0466 39.41C48.9766 39.41 51.1366 41.99 51.4366 45.17L48.4066 45.38C48.1366 43.4 47.0266 42.17 45.0466 42.17C43.0666 42.17 41.6866 43.64 41.6866 46.4C41.6866 49.13 43.0666 50.6 45.0466 50.6C47.0266 50.6 48.1366 49.34 48.4066 47.33L51.4366 47.6C51.1366 50.78 48.9766 53.36 45.0466 53.36C40.9666 53.36 38.0566 50.6 38.0566 46.4ZM62.4809 46.85V39.77H66.0809V53H62.4809V50.84C61.7909 52.37 60.2309 53.36 58.2209 53.36C54.7109 53.36 53.5109 50.99 53.5109 48.05V39.77H57.1109V47.33C57.1109 49.34 57.8609 50.54 59.6309 50.54C61.4009 50.54 62.4809 49.1 62.4809 46.85ZM78.2796 39.95L78.0096 43.31C77.3196 42.92 76.7196 42.74 75.8496 42.74C73.9896 42.74 72.7296 44.06 72.7296 46.46V53H69.1296V39.77H72.7296V42.29C73.2096 40.79 74.5896 39.41 76.4196 39.41C77.2296 39.41 77.8896 39.62 78.2796 39.95ZM89.3372 48.38L92.2472 48.68C91.5572 51.62 89.2772 53.36 85.8872 53.36C81.8072 53.36 78.8672 50.75 78.8672 46.58C78.8672 42.41 81.8372 39.41 85.7972 39.41C90.1172 39.41 92.3372 42.41 92.3372 46.01V47.3H82.4072C82.5272 49.25 84.0572 50.63 86.0072 50.63C87.7772 50.63 88.8272 49.88 89.3372 48.38ZM82.4672 45.05H88.8272C88.7072 43.52 87.7772 42.05 85.7672 42.05C83.7872 42.05 82.7972 43.4 82.4672 45.05Z" fill="black"/>
<path d="M1.54162 88.0532L4.99162 87.9032C5.14162 90.8432 7.27162 92.1632 9.91162 92.1632C12.2516 92.1632 13.7516 91.2332 13.7516 89.6432C13.7516 88.2032 12.6116 87.6632 10.6316 87.2732L7.03162 86.6132C4.09162 86.0732 2.05162 84.4532 2.05162 81.3332C2.05162 77.7932 4.84162 75.5132 9.25162 75.5132C14.2016 75.5132 16.9916 78.0632 17.0516 82.2632L13.6016 82.3832C13.4816 79.8032 11.8016 78.4532 9.22162 78.4532C7.00162 78.4532 5.74162 79.4432 5.74162 81.0632C5.74162 82.4432 6.73162 82.9232 8.44162 83.2532L11.9216 83.8832C15.6416 84.5732 17.3816 86.3432 17.3816 89.4032C17.3816 93.1232 14.1716 95.1332 9.91162 95.1332C5.05162 95.1332 1.54162 92.6132 1.54162 88.0532ZM29.6512 90.1532L32.5612 90.4532C31.8712 93.3932 29.5912 95.1332 26.2012 95.1332C22.1212 95.1332 19.1812 92.5232 19.1812 88.3532C19.1812 84.1832 22.1512 81.1832 26.1112 81.1832C30.4312 81.1832 32.6512 84.1832 32.6512 87.7832V89.0732H22.7212C22.8412 91.0232 24.3712 92.4032 26.3212 92.4032C28.0912 92.4032 29.1412 91.6532 29.6512 90.1532ZM22.7812 86.8232H29.1412C29.0212 85.2932 28.0912 83.8232 26.0812 83.8232C24.1012 83.8232 23.1112 85.1732 22.7812 86.8232ZM34.2983 88.1732C34.2983 83.9732 37.2083 81.1832 41.2883 81.1832C45.2183 81.1832 47.3783 83.7632 47.6783 86.9432L44.6483 87.1532C44.3783 85.1732 43.2683 83.9432 41.2883 83.9432C39.3083 83.9432 37.9283 85.4132 37.9283 88.1732C37.9283 90.9032 39.3083 92.3732 41.2883 92.3732C43.2683 92.3732 44.3783 91.1132 44.6483 89.1032L47.6783 89.3732C47.3783 92.5532 45.2183 95.1332 41.2883 95.1332C37.2083 95.1332 34.2983 92.3732 34.2983 88.1732ZM58.7226 88.6232V81.5432H62.3226V94.7732H58.7226V92.6132C58.0326 94.1432 56.4726 95.1332 54.4626 95.1332C50.9526 95.1332 49.7526 92.7632 49.7526 89.8232V81.5432H53.3526V89.1032C53.3526 91.1132 54.1026 92.3132 55.8726 92.3132C57.6426 92.3132 58.7226 90.8732 58.7226 88.6232ZM74.5213 81.7232L74.2513 85.0832C73.5613 84.6932 72.9613 84.5132 72.0913 84.5132C70.2313 84.5132 68.9713 85.8332 68.9713 88.2332V94.7732H65.3713V81.5432H68.9713V84.0632C69.4513 82.5632 70.8313 81.1832 72.6613 81.1832C73.4713 81.1832 74.1313 81.3932 74.5213 81.7232ZM85.5789 90.1532L88.4889 90.4532C87.7989 93.3932 85.5189 95.1332 82.1289 95.1332C78.0489 95.1332 75.1089 92.5232 75.1089 88.3532C75.1089 84.1832 78.0789 81.1832 82.0389 81.1832C86.3589 81.1832 88.5789 84.1832 88.5789 87.7832V89.0732H78.6489C78.7689 91.0232 80.2989 92.4032 82.2489 92.4032C84.0189 92.4032 85.0689 91.6532 85.5789 90.1532ZM78.7089 86.8232H85.0689C84.9489 85.2932 84.0189 83.8232 82.0089 83.8232C80.0289 83.8232 79.0389 85.1732 78.7089 86.8232ZM101.83 99.6932H98.2895L100.33 94.8332L94.8395 81.5432H98.6195L102.22 90.5732H102.34L105.91 81.5432H109.42L101.83 99.6932ZM113.514 88.1732C113.514 90.6632 114.654 92.4032 116.844 92.4032C119.064 92.4032 120.204 90.6632 120.204 88.1732C120.204 85.6532 119.064 83.9132 116.844 83.9132C114.654 83.9132 113.514 85.6532 113.514 88.1732ZM123.834 88.1732C123.834 92.2832 120.954 95.1332 116.844 95.1332C112.764 95.1332 109.884 92.2832 109.884 88.1732C109.884 84.0632 112.764 81.1832 116.844 81.1832C120.954 81.1832 123.834 84.0632 123.834 88.1732ZM134.924 88.6232V81.5432H138.524V94.7732H134.924V92.6132C134.234 94.1432 132.674 95.1332 130.664 95.1332C127.154 95.1332 125.954 92.7632 125.954 89.8232V81.5432H129.554V89.1032C129.554 91.1132 130.304 92.3132 132.074 92.3132C133.844 92.3132 134.924 90.8732 134.924 88.6232ZM150.722 81.7232L150.452 85.0832C149.762 84.6932 149.162 84.5132 148.292 84.5132C146.432 84.5132 145.172 85.8332 145.172 88.2332V94.7732H141.572V81.5432H145.172V84.0632C145.652 82.5632 147.032 81.1832 148.862 81.1832C149.672 81.1832 150.332 81.3932 150.722 81.7232ZM158.313 84.0632H156.363V81.5432H158.313V80.4332C158.313 77.3432 160.173 75.5132 163.143 75.5132C165.543 75.5132 167.013 76.6532 167.583 78.7532L165.273 79.5032C164.973 78.6632 164.403 78.0932 163.473 78.0932C162.363 78.0932 161.883 78.9332 161.883 80.1632V81.5432H165.423V84.0632H161.883V94.7732H158.313V84.0632ZM175.822 88.6232V81.5432H179.422V94.7732H175.822V92.6132C175.132 94.1432 173.572 95.1332 171.562 95.1332C168.052 95.1332 166.852 92.7632 166.852 89.8232V81.5432H170.452V89.1032C170.452 91.1132 171.202 92.3132 172.972 92.3132C174.742 92.3132 175.822 90.8732 175.822 88.6232ZM182.921 91.4132V84.0632H181.031V81.9332L181.931 81.7832C183.221 81.5732 183.581 80.9132 183.881 79.6832L184.301 77.8832H186.491V81.5432H190.091V84.0632H186.491V90.6032C186.491 91.7432 187.001 92.2532 188.081 92.2532C188.801 92.2532 189.551 91.9832 190.331 91.6232V93.9932C189.371 94.7132 188.291 95.1332 186.671 95.1332C184.631 95.1332 182.921 94.2332 182.921 91.4132ZM201.193 88.6232V81.5432H204.793V94.7732H201.193V92.6132C200.503 94.1432 198.943 95.1332 196.933 95.1332C193.423 95.1332 192.223 92.7632 192.223 89.8232V81.5432H195.823V89.1032C195.823 91.1132 196.573 92.3132 198.343 92.3132C200.113 92.3132 201.193 90.8732 201.193 88.6232ZM216.992 81.7232L216.722 85.0832C216.032 84.6932 215.432 84.5132 214.562 84.5132C212.702 84.5132 211.442 85.8332 211.442 88.2332V94.7732H207.842V81.5432H211.442V84.0632C211.922 82.5632 213.302 81.1832 215.132 81.1832C215.942 81.1832 216.602 81.3932 216.992 81.7232ZM228.05 90.1532L230.96 90.4532C230.27 93.3932 227.99 95.1332 224.6 95.1332C220.52 95.1332 217.58 92.5232 217.58 88.3532C217.58 84.1832 220.55 81.1832 224.51 81.1832C228.83 81.1832 231.05 84.1832 231.05 87.7832V89.0732H221.12C221.24 91.0232 222.77 92.4032 224.72 92.4032C226.49 92.4032 227.54 91.6532 228.05 90.1532ZM221.18 86.8232H227.54C227.42 85.2932 226.49 83.8232 224.48 83.8232C222.5 83.8232 221.51 85.1732 221.18 86.8232ZM232.732 94.7732V90.7532H236.752V94.7732H232.732Z" fill="black"/>
<defs>
<clipPath id="clip0_5_80723">
<rect width="13" height="13" fill="white" transform="translate(216.212 7.28516) rotate(-3.22239)"/>
</clipPath>
</defs>
</svg>
